# xmcd CD database file
#
# Track frame offsets:
#	150
#	5241
#	17547
#	35006
#	53394
#	72420
#	92471
#	109689
#	129675
#	138751
#	162769
#	180804
#	195142
#	209321
#	240285
#
# Disc length: 3481 seconds
#
# Revision: 5
# Processed by: cddbd v1.5.1PL2 Copyright (c) Steve Scherf et al.
# Submitted via: CDex 1.51
#
DISCID=b00d970f
DTITLE=Outkast - ATLiens+
DYEAR=1996
DGENRE=Rap
TTITLE0=You May Die (Intro)
TTITLE1=Two Dope Boyz (In A Cadillac)
TTITLE2=ATLiens
TTITLE3=Wheelz Of Steel
TTITLE4=Jazzy Belle
TTITLE5=Elevators (Me and You)
TTITLE6=Ova Da Wudz
TTITLE7=Babylon
TTITLE8=Wailin'
TTITLE9=Mainstream
TTITLE10=Decatur Psalm
TTITLE11=Millennium
TTITLE12=E.T. (Extraterrestrial)
TTITLE13=13th Floor - Growing Old
TTITLE14=Elevators (ONP 86 Remix)
EXTD=HSI YEAR: 1996
EXTT0=
EXTT1=
EXTT2=
EXTT3=
EXTT4=
EXTT5=
EXTT6=
EXTT7=
EXTT8=
EXTT9=
EXTT10=
EXTT11=
EXTT12=
EXTT13=
EXTT14=
PLAYORDER=
